<?xml version="1.0" encoding="UTF-8"?><svg id="Layer_1" xmlns="http://www.w3.org/2000/svg" viewBox="0 0 186 36"><defs><style>.cls-1,.cls-2,.cls-3,.cls-4{fill-rule:evenodd;}.cls-1,.cls-5{fill:#fff;}.cls-2{fill:#cd172f;}.cls-6{fill:#c1242d;}.cls-4{fill:#262021;}</style></defs><rect class="cls-6" x="48.47" y="1.34" width=".6" height="33.32"/><path d="M66.17,17.74c.82-.64,1.22-1.49,1.22-2.59,0-.91-.31-1.69-.94-2.31-.77-.77-1.96-1.18-3.42-1.18h-5.99v12.85h6.13c3.07,0,4.9-1.38,4.9-3.72,0-1.43-.59-2.39-1.9-3.05ZM60.34,19.49h2.74c1.63,0,1.63.73,1.63.97v.03c0,.24,0,.97-1.54.97h-2.83v-1.97ZM62.45,16.56h-2.11v-1.87h2.29c.64,0,1.4.16,1.4.93,0,.23,0,.93-1.58.93Z"/><polygon points="73.27 19.57 79 19.57 79 16.5 73.27 16.5 73.27 14.73 79.78 14.73 79.78 11.65 69.91 11.65 69.91 24.5 79.86 24.5 79.86 21.43 73.27 21.43 73.27 19.57"/><path d="M87.26,16.54h0c-2.16-.55-2.36-.77-2.36-1.29,0-.43.48-.71,1.21-.71.89,0,1.86.37,2.96,1.13l.29.2,1.77-2.57-.25-.2c-1.34-1.08-2.93-1.62-4.73-1.62-2.71,0-4.6,1.65-4.6,4.05,0,2.74,1.94,3.45,4.29,4.05,2.03.52,2.18.82,2.18,1.24,0,.74-1.07.8-1.4.8-1.17,0-2.25-.44-3.4-1.4l-.27-.22-2.02,2.42.25.23c1.02.92,2.26,1.56,3.63,1.85l-1.29,1.9,2.93,1.22,1.22-3.02c2.33-.36,3.71-1.85,3.71-4.07,0-2.56-1.98-3.43-4.11-3.98Z"/><rect x="93.46" y="11.65" width="3.37" height="12.85"/><rect x="93.5" y="8.49" width="3.3" height="2.9"/><polygon points="122.26 11.65 111.52 11.65 111.5 11.65 107.32 11.65 102.89 16.42 102.89 11.65 99.52 11.65 99.52 24.5 102.89 24.5 102.89 20.58 103.91 19.52 107.54 24.5 111.62 24.5 106.21 17.19 111.5 11.68 111.5 14.82 115.19 14.82 115.19 24.5 118.57 24.5 118.57 14.82 122.26 14.82 122.26 11.65"/><path d="M126.68,11.57l-5.5,12.94h3.49l1.11-2.72h4.67l1.11,2.72h3.56l-5.5-12.94h-2.93ZM129.2,18.72h-2.19l1.09-2.67,1.09,2.67Z"/><path d="M141.65,16.54h0c-2.17-.55-2.36-.77-2.36-1.29,0-.43.48-.71,1.21-.71.89,0,1.86.37,2.96,1.13l.29.2,1.77-2.57-.25-.2c-1.34-1.08-2.93-1.62-4.73-1.62-2.71,0-4.6,1.65-4.6,4.05,0,2.74,1.94,3.45,4.29,4.05,2.03.52,2.18.82,2.18,1.24,0,.74-1.07.8-1.4.8-1.17,0-2.25-.44-3.4-1.4l-.27-.22-2.02,2.42.25.23c1.01.92,2.26,1.56,3.64,1.85l-1.29,1.9,2.93,1.22,1.22-3.02c2.33-.36,3.71-1.85,3.71-4.07,0-2.56-1.98-3.43-4.11-3.98Z"/><path d="M157.61,19.83c0,1.49-.73,1.66-1.28,1.66-.67,0-1.26-.33-1.96-1.1l-.26-.29-2.15,2.39.2.23c1.09,1.29,2.51,1.95,4.24,1.95,1.42,0,2.6-.42,3.41-1.23.83-.83,1.25-2,1.25-3.49v-8.3h-3.44v8.18Z"/><polygon points="170.11 17.19 175.43 11.65 171.22 11.65 166.8 16.42 166.8 11.65 163.42 11.65 163.42 24.5 166.8 24.5 166.8 20.58 167.82 19.52 171.44 24.5 175.52 24.5 170.11 17.19"/><path class="cls-1" d="M25.93,36.06c-.55-.65-1.23-1.4-2.03-2.08-1.26-1.08-2.65-1.83-4.21-2.63-1.87-.96-3.8-1.94-5.26-3.66-.95-1.13-1.61-2.54-1.94-4.22-.29-1.43-.33-3.03-.14-4.66.14-1.17.41-2.34.78-3.38.25-.7.41-1.2.54-1.66.53-1.94.29-3.77-.75-5.75-.26-.49-.57-.95-.91-1.45l-.08-.12.12-.08c.59-.41,1.22-.84,1.79-1.36.91-.82,1.64-1.76,2.19-2.81.37-.7.63-1.44.9-2.2l.07-.2.16.14c.79.7,1.68,1.49,2.86,1.76.31.07.63.11.96.11.54,0,1.12-.09,1.79-.27,1.16-.31,2.23-.46,3.27-.46s2.11.15,3.26.46c.67.18,1.25.27,1.79.27.34,0,.65-.03.96-.11,1.18-.27,2.07-1.06,2.86-1.76l.16-.14.07.2c.26.76.53,1.49.9,2.2.55,1.05,1.28,2,2.19,2.81.57.52,1.2.96,1.8,1.37l.12.08-.08.12c-.35.5-.65.95-.91,1.45-1.03,1.98-1.27,3.81-.75,5.75.13.47.29.96.53,1.66.37,1.04.64,2.21.78,3.38.2,1.62.15,3.23-.14,4.66-.34,1.67-.99,3.09-1.94,4.21-1.46,1.72-3.39,2.71-5.26,3.66-1.56.8-2.95,1.55-4.21,2.63-.8.68-1.47,1.43-2.03,2.08l-.11.13-.11-.13Z"/><path class="cls-4" d="M36.41,28.18s.05-.04.07-.06c-.02.02-.05.04-.07.06"/><path class="cls-3" d="M38.6,24.95c.31-.84.52-1.77.62-2.77.22-2.11-.08-4.5-.8-6.55-.4-1.15-.75-2.2-.84-3.28-.12-1.42.24-2.96,1.08-4.57.19-.37.42-.74.71-1.17-1.17-.79-2.09-1.64-2.82-2.58-.72-.93-1.27-1.96-1.73-3.25-.91.8-1.75,1.27-2.65,1.47-.89.2-1.85.15-3.02-.17-2.3-.62-3.93-.62-6.24,0-1.18.32-2.14.37-3.02.17-.89-.2-1.73-.67-2.65-1.47-.46,1.29-1.01,2.33-1.73,3.25-.73.95-1.66,1.79-2.82,2.58.3.43.52.8.71,1.17.84,1.6,1.2,3.14,1.08,4.57-.09,1.08-.44,2.12-.84,3.28-.73,2.05-1.02,4.44-.81,6.55.1,1,.31,1.93.63,2.77.34.91.8,1.71,1.38,2.39,1.38,1.62,3.26,2.59,5.09,3.52.76.39,1.54.79,2.27,1.23,1.44.86,2.69,1.93,3.82,3.25,1.14-1.33,2.39-2.39,3.82-3.25.73-.44,1.52-.84,2.27-1.23,1.83-.93,3.71-1.9,5.09-3.52.57-.68,1.04-1.48,1.38-2.39"/><path class="cls-4" d="M15.2,27.73s.02.02.03.04c-.01-.01-.02-.02-.03-.04"/><path class="cls-4" d="M15.6,28.12s.05.04.07.06c-.02-.02-.05-.04-.07-.06"/><path class="cls-4" d="M36.84,27.76s.02-.02.03-.03c-.01.01-.02.02-.03.03"/><path class="cls-5" d="M30.1,2.85v8.59l-.26.17c-.6.41-1.49.52-2.37.31-1.07-.26-1.8-.26-2.87,0-.88.21-1.77.09-2.37-.31l-.26-.17V2.85c-1.69.24-3.07-.11-4.47-1.15v27.18c.39.25.8.49,1.22.72,1.07.57,2.19,1.08,3.25,1.65v-8.06c.42.25.87.45,1.3.64.34.15.66.3.97.46.55.29,1.05.65,1.47,1.06l.32.31.32-.31c.43-.41.92-.77,1.47-1.06.3-.16.63-.31.97-.46.44-.2.88-.4,1.3-.64v8.06c1.06-.57,2.18-1.08,3.25-1.65.42-.23.83-.47,1.22-.72V1.69c-1.4,1.04-2.78,1.4-4.47,1.15"/><path class="cls-3" d="M31.94,29.67h.01s.02,0,.02,0c.53,0,1.4-.27,1.51-1.02.06-.43-.26-.88-.76-1.03l-.05-.02.05-.02c.47-.21.72-.6.64-1.02-.12-.63-.89-.91-1.41-.91-.01,0-.02,0-.03,0-.51,0-1.11.29-1.26.77-.06.2-.02.42.09.57.07.09.19.2.41.2.27,0,.44-.2.49-.39.04-.16.02-.38-.19-.51h-.01s0-.02,0-.02c0-.15.15-.25.38-.27,0,0,.01,0,.02,0,.2,0,.38.08.5.22.15.17.21.41.16.66-.09.58-.52.58-.97.59h-.02v.28h.04c.47.03.91.05,1.01.65.05.29-.04.66-.37.82-.19.09-.45.08-.6-.01-.09-.05-.13-.13-.13-.23h0s0-.02,0-.02c.17-.11.24-.29.18-.49-.05-.19-.24-.39-.52-.39-.17,0-.3.06-.4.19-.11.15-.15.38-.08.6.15.5.77.8,1.28.8"/><path class="cls-1" d="M27.89,25.68c-.91,0-1.65.89-1.65,1.98s.74,1.98,1.65,1.98,1.65-.89,1.65-1.98-.74-1.98-1.65-1.98M27.89,29.33c-.36,0-.65-.73-.65-1.67s.28-1.67.65-1.67.64.73.64,1.67-.28,1.67-.64,1.67"/><path class="cls-1" d="M24,29.64c.89,0,1.62-.89,1.62-1.98s-.73-1.98-1.62-1.98c-.39,0-.76.12-1.01.35-.26.24-.4.61-.38.96.02.3.16.55.39.72.43.3,1.07.31,1.54.02l.07-.05v.09c.02.74-.22,1.55-.61,1.56h0c-.07,0-.13-.02-.17-.06-.06-.06-.07-.16-.06-.25h0s0-.03,0-.03c.07-.11.06-.36-.01-.51-.08-.16-.25-.25-.49-.25-.02,0-.03,0-.05,0-.23.01-.4.12-.47.32-.09.23-.01.51.18.7.27.26.75.39,1.06.39M24.4,27.33c-.09.17-.23.26-.4.26s-.31-.09-.4-.25c-.08-.14-.12-.32-.12-.53,0-.41.18-.82.52-.82s.52.42.52.81c0,.2-.04.4-.12.54"/><path class="cls-3" d="M21.43,29.6h-1.75l-.03-.3.47-.23v-2.29h-.67v-.41c.37-.14.78-.25,1.19-.66h.34v3.36l.47.23-.03.3Z"/><path d="M34.33,10.21c-.47-.35-.56-.99-.65-1.55-.02-.13-.04-.26-.06-.38-.2-1.09-.67-1.58-1.41-1.52l1.12-1.83c.2-.32.39-.48.72-.67l.04-.03h-1.57l.03.02c.25.24.34.41.16.72l-.94,1.63v-1.86c0-.17.09-.33.27-.49l.03-.02h-1.75l.03.02c.19.16.27.32.27.49v4.69c-.02.35-.04.4-.11.46-.13.1-.2.19-.26.36v.03s.02,0,.02,0c.5-.14,1.45-.11,1.88-.02h.02s0-.02,0-.02c-.05-.13-.12-.19-.21-.25-.02-.02-.05-.04-.08-.06-.08-.06-.1-.15-.11-.49v-2.24c.69.01.79.78.9,1.52.1.75.21,1.52.91,1.52.02,0,.04,0,.06,0h.75l-.03-.03Z"/><path d="M21.3,7.65c-.26-.32-.58-.53-.9-.59.3-.07.53-.22.69-.43.42-.56.36-1.37-.14-1.95-.32-.37-.6-.44-1.06-.44h-2.17l.03.02c.12.11.27.29.27.5v4.69c-.02.35-.04.43-.11.49-.02.02-.05.04-.07.05-.09.06-.16.12-.21.25v.03s.02-.01.02-.01c.12-.05.78-.21,1.36-.1.1.01.21.02.32.04.43.06.93.12,1.32-.02.47-.16.82-.54.96-1.04.15-.53.04-1.1-.3-1.51M20.28,7.83c.12.39.12,1.07.04,1.44-.03.13-.1.24-.21.3-.31.19-.83.07-.91.05v-2.28h.43c.33,0,.54.16.64.49M19.2,6.79v-2.11h.27c.25,0,.3,0,.39.07.28.17.29.67.3.94v.04c0,.46-.07.76-.22.92-.09.09-.21.14-.36.14h-.37Z"/><path class="cls-5" d="M24.96,4.24h0c-.04.23-.12.35-.25.5v.02s0,0,0,0c.18.05.31,0,.49-.06.06-.02.12-.04.19-.07.22-.07.59-.05.83,0v4.73c0,.14-.05.25-.16.34-.2.16-.57.22-.97.14-.34-.06-.76-.23-.81-.65,0,0,0-.01,0-.02,0,0,0,0,0,0,.21.02.39-.03.52-.15.11-.1.17-.25.16-.42,0-.35-.32-.54-.62-.57-.39-.03-.59.16-.69.32-.19.32-.16.81.07,1.17.23.36.62.57.9.67.28.1.57.14.86.14.59,0,1.19-.16,1.75-.33.11-.05.22-.06.34-.03h.05s-.04-.02-.04-.02c-.06-.06-.07-.17-.08-.48v-4.76c0-.21.14-.35.27-.46l.03-.02h-2.86Z"/><path class="cls-2" d="M31.33,17.65c-.41-1.03-.58-1.81-.12-2.87.11-.26.25-.51.41-.75-.76-.5-1.14-1.23-1.52-2.05-.78.53-1.83.59-2.73.38-.49-.12-.91-.17-1.33-.17s-.84.06-1.33.17c-.91.21-1.95.15-2.73-.38-.38.82-.76,1.55-1.52,2.05.16.23.3.48.41.75.46,1.06.28,1.84-.12,2.87-.29.72-.44,1.62-.34,2.48.08.71.33,1.38.83,1.9.85.9,2.15,1.26,3.23,1.84.58.31,1.11.69,1.58,1.14.47-.45,1-.83,1.58-1.14,1.08-.57,2.37-.94,3.23-1.84.5-.52.75-1.19.83-1.9.1-.86-.06-1.76-.34-2.48"/><polygon class="cls-1" points="26.04 16.43 26.39 15.34 27.54 15.34 26.61 14.66 26.97 13.56 26.04 14.24 25.11 13.56 25.47 14.66 24.53 15.34 25.69 15.34 26.04 16.43"/><path class="cls-1" d="M28.44,15.95c.84.69,1.37,1.72,1.37,2.87,0,2.06-1.7,3.73-3.78,3.73s-3.78-1.68-3.78-3.73c0-1.15.53-2.18,1.37-2.87-.33.47-.52,1.04-.52,1.66,0,1.61,1.32,2.92,2.93,2.92s2.93-1.32,2.93-2.92c0-.62-.19-1.19-.52-1.66"/></svg>